<?xml version="1.0" encoding="UTF-8"?>
<svg width="116px" height="55px" viewBox="0 0 116 55" version="1.1" xmlns="http://www.w3.org/2000/svg" xmlns:xlink="http://www.w3.org/1999/xlink">
    <!-- Generator: Sketch 51.3 (57544) - http://www.bohemiancoding.com/sketch -->
    <title>Logo-Black</title>
    <desc>Created with Sketch.</desc>
    <defs>
        <polygon id="path-1" points="0 0.040127817 115.237453 0.040127817 115.237453 7.49529739 0 7.49529739"></polygon>
    </defs>
    <g id="Symbols" stroke="none" stroke-width="1" fill="none" fill-rule="evenodd">
        <g id="Navigation/Desktop" transform="translate(-90.000000, -12.000000)">
            <g id="Nav">
                <g id="Logo-Black" transform="translate(90.000000, 12.000000)">
                    <g id="Group-12">
                        <path d="M72.3287671,31.2702967 L72.3287671,10.6297907 L72.3321721,10.6297907 L72.3321721,10.5655746 L72.3321721,10.561998 C72.3514669,7.31510381 73.7071271,4.66663825 75.848198,2.82892082 C77.9642992,1.01266294 80.8421385,0 83.9395166,0 L83.9395166,0.00325144627 L84.0194521,0.00357659089 L84.0223706,0.00357659089 C87.3580959,0.0234104131 90.0809284,1.06094692 92.0861252,2.63936151 C94.3959849,4.45773283 95.7542394,6.99694979 96.0081521,9.54250707 C96.3483237,12.9503479 95.0009326,15.5037087 94.2137385,16.6732539 C94.56753,16.8616752 94.9086745,17.0897641 95.2292271,17.3698762 C95.7681835,17.8403605 96.2474721,18.4558593 96.6299625,19.2740857 L96.6648228,19.3485439 L96.6792534,19.3991039 C97.2256683,21.3172946 97.149462,22.7015978 97.1445978,22.780608 L97.1878894,31.3109398 L97.1917808,32.1584293 L96.3473509,32.1537147 L88.5475617,32.1101453 L87.710266,32.1052681 L87.710266,31.2702967 L87.710266,23.2122375 C87.710266,22.791988 87.4380313,22.3966122 87.0732143,22.0763447 C86.5214487,21.5922044 85.8213242,21.3028256 85.4137019,21.3028256 C84.4883636,21.3028256 83.1688608,21.2560048 83.1651316,21.2556797 L82.3508598,21.2282049 L82.3508598,20.4161562 L82.3508598,14.7800993 L82.3508598,13.9467536 L83.1881556,13.9405759 C83.2213945,13.9404133 83.2011268,13.9382999 83.3447837,13.9311467 C83.4206657,13.9269198 83.5581612,13.9200918 84.0233435,13.8968439 L84.0629059,13.8968439 C85.372356,13.8963562 86.2769402,13.1433212 86.6827789,12.1951995 C86.8413527,11.8248598 86.9264767,11.4291588 86.9326381,11.0393104 C86.9387994,10.6564526 86.8698895,10.2779842 86.7205578,9.93414377 C86.3563892,9.09510807 85.4749912,8.44969598 83.9850782,8.44091708 L83.9596221,8.44091708 L83.9596221,8.44400595 C82.9512677,8.44400595 82.3069196,8.83336664 81.9181057,9.31328011 C81.5239411,9.80002162 81.3728258,10.3594329 81.3708801,10.7096137 L81.3708801,10.717092 L81.3739608,10.717092 C81.3739608,39.7593352 81.3272642,31.2057555 81.3272642,31.2702967 L81.3254806,32.1086822 L80.4898063,32.1101453 C80.4722951,32.1101453 74.3132099,32.1176236 73.1660629,32.1101453 L72.3287671,32.1044553 L72.3287671,31.2702967 Z" id="Fill-1" fill="#231F20"></path>
                        <path d="M42.3165108,0.000167482733 C42.3392676,0.000167482733 50.2516977,0.0224572936 54.2841723,0.000167482733 L54.2872388,0.000167482733 L54.37294,3.58706465e-06 C58.5317875,-0.00261874362 62.619298,1.43261562 65.6767805,4.10280384 C68.7576653,6.79364292 70.7951261,10.7246805 70.8217564,15.6905554 L70.8217564,15.6939972 L70.8219178,15.7777479 L70.8219178,15.8283916 C70.8157848,20.7654208 69.5438243,24.8875608 66.6509656,27.7985117 C63.7729554,30.6950399 59.3300512,32.3471082 52.9813852,32.3507139 L52.914406,32.3507139 L52.0824105,32.3502222 L52.0809579,31.5041928 L52.0659481,23.617861 L52.0641728,22.768062 L52.8995575,22.768062 C53.1899086,22.768062 52.8787375,22.7723233 53.0720897,22.7705204 C55.0561285,22.7534753 57.1074694,22.4368288 58.6308845,21.5001651 C60.0619813,20.6200454 61.0413311,19.139248 61.0413311,16.7426017 C61.0413311,16.4620123 61.0460116,16.8942051 61.0440748,16.6655707 C61.0263213,14.555414 60.4020423,12.982835 59.4816019,11.8953873 C58.3933099,10.6097897 56.8855501,9.99436142 55.4918972,9.97354667 C53.2678628,9.94027585 51.5841816,9.90766061 50.8714577,9.8930739 L50.9137434,31.5458223 L50.9155187,32.3972603 L50.076906,32.3925073 L42.269706,32.3484194 L41.4383562,32.3436664 L41.4393245,31.5018982 L41.48274,0.00262591775 L42.3165108,0.000167482733 Z" id="Fill-3" fill="#231F20"></path>
                        <polygon id="Fill-5" fill="#231F20" points="18.9182851 0.0457629974 39.8488382 0.00179783204 40.6849315 0 40.6849315 0.845961695 40.6849315 7.30263032 40.6849315 8.14123724 39.8522245 8.14663074 33.5325842 8.187654 33.5746711 31.5477029 33.5762836 32.3972603 32.738739 32.3918668 26.0653111 32.3479016 25.2340553 32.3425081 25.2356678 31.5037377 25.2780772 8.18749056 18.9148988 8.14663074 18.0821918 8.14123724 18.0821918 7.30263032 18.0821918 0.889926861 18.0821918 0.0475608295"></polygon>
                        <g id="Group-9" transform="translate(0.000000, 36.164384)">
                            <mask id="mask-2" fill="white">
                                <use xlink:href="#path-1"></use>
                            </mask>
                            <g id="Clip-8"></g>
                            <path d="M100.39544,6.50479598 C100.26242,6.94867531 100.477826,7.44272952 100.908475,7.49450743 L105.583095,7.49450743 C106.010976,7.5082935 106.336446,7.3436622 106.472398,6.84111192 L106.996829,4.65185223 L105.036032,4.65185223 L104.876309,5.32015593 C104.807275,5.60597639 104.5948,5.66753279 104.374672,5.66609006 L102.641818,5.64284611 L103.553589,1.9517065 L105.218223,1.9517065 C105.423046,1.9517065 105.66141,2.07321626 105.578699,2.39927281 L105.395042,3.16231565 L107.393938,3.16231565 L107.910717,0.969048382 C108.006779,0.459284465 107.664213,0.0402521131 107.090611,0.0402521131 L102.618046,0.0404124162 C102.147344,0.0987627514 101.886513,0.407827164 101.745025,0.835195278 L100.39544,6.50479598 Z M107.967052,6.50142961 L109.26942,0.741257651 C109.459264,0.129220344 109.947061,0.0404124162 110.552575,0.0404124162 L115.237453,0.0402521131 L114.689902,1.96982075 L111.301856,1.96982075 C111.036303,1.95859953 110.908329,2.01727048 110.861275,2.27151122 L110.715066,2.8873958 L113.664973,2.8873958 L113.071507,4.78666715 L110.301187,4.80718595 L110.182494,5.3440411 C110.132346,5.52486301 110.194868,5.69237977 110.379827,5.69237977 L113.844885,5.69237977 L113.331036,7.49450743 L108.656905,7.49450743 C108.137521,7.46821772 107.806189,7.27280822 107.967052,6.50142961 Z M92.4617256,7.49450743 L94.3028528,0.0402521131 L99.4940892,0.0402521131 C100.029267,0.0402521131 100.321522,0.410071408 100.260954,0.820607695 L98.6244871,7.49450743 L96.5534632,7.49450743 L97.8317343,2.39702856 C97.9085836,2.13220781 97.8439455,1.9517065 97.6270742,1.9517065 L95.8118347,1.9517065 L94.4821136,7.49450743 L92.4617256,7.49450743 Z M87.4575652,3.91798455 L87.9031936,2.32232731 C88.0020231,2.0543005 88.1768878,1.93086709 88.4284391,1.9517065 L89.5683163,1.9517065 C89.8366377,1.9517065 90.1293814,1.9823244 90.0520437,2.25788546 L89.9025783,2.77518362 L87.4575652,3.91798455 Z M84.6540306,7.49450743 L86.5895913,7.49450743 L86.9438796,6.2746007 L89.3701688,5.11753279 L88.7978694,7.49450743 L90.8693817,7.49450743 L92.4299764,1.01457447 C92.5465529,0.49294812 92.3392877,0.0402521131 91.7990631,0.0402521131 L87.1347004,0.0404124162 C86.714797,0.0404124162 86.4025153,0.308599534 86.2624932,0.73708977 L84.6540306,7.49450743 Z M73.958462,7.49450743 L75.8344319,0.0402521131 L79.4896589,0.0402521131 C79.9263323,0.0352827164 80.0704248,0.180517342 80.1620904,0.261310114 C80.2480574,0.187730982 80.4512522,0.0404124162 80.6604712,0.0404124162 L83.9741095,0.0402521131 C84.6611945,0.0402521131 84.799914,0.411033226 84.6716147,0.991490819 L83.0520805,7.49450743 L81.0841194,7.49450743 L82.3547381,2.25051151 C82.42133,2.01278199 82.3601111,1.86273827 82.0805554,1.87283737 L81.2086739,1.87283737 C80.8942755,1.87828767 80.781281,1.97030166 80.7143634,2.22822938 L79.4645852,7.49450743 L77.5213721,7.49450743 L78.8169018,2.25051151 C78.8939139,1.95988196 78.6540854,1.86610463 78.4925716,1.87187555 L77.3717439,1.89800495 L76.0263924,7.49450743 L73.958462,7.49450743 Z M69.6138706,3.48997523 L70.0471249,1.96982075 L71.5408021,1.96982075 C71.9677066,1.96982075 72.0707693,2.1623448 71.8628528,2.30902215 L69.6138706,3.48997523 Z M70.0332856,5.44278782 L70.3537081,6.68497668 C70.4787511,7.19041242 70.7106015,7.45795832 71.1059196,7.49450743 L72.8034429,7.49450743 L73.3400855,5.69237977 L72.5789191,5.69237977 C72.2653348,5.69237977 72.0232269,5.57439668 71.9445866,5.2053789 L71.8053787,4.42983241 L72.9322306,3.92070971 C73.3107786,3.72946809 73.6406445,3.24535267 73.7715488,2.70673419 L74.1758218,1.22793792 C74.3490584,0.406384436 74.0870869,0.0402521131 73.2285563,0.0402521131 L68.5270715,0.0402521131 L66.7150884,7.49450743 L68.6394148,7.49450743 L69.0539452,5.9253002 L70.0332856,5.44278782 Z M62.0556103,2.5172559 L61.4064615,5.26340863 C61.3364505,5.55820606 61.4404901,5.77653891 61.6300083,5.77653891 L63.2650101,5.77653891 C63.4491554,5.77653891 63.6357429,5.61463276 63.7015207,5.33586564 L64.3174549,2.57400321 C64.3768829,2.31110609 64.2345814,2.12291023 64.0403415,2.10110901 L62.5054718,2.10110901 C62.2617357,2.10383416 62.1282263,2.26686243 62.0556103,2.5172559 Z M60.7247494,0.884408336 C60.8823557,0.377048965 61.2099422,0.0460230254 61.843949,0.0402521131 L65.8402762,0.0404124162 C66.3487517,0.0843354707 66.7424416,0.466658409 66.6208178,0.999826581 L65.3607821,6.60145876 C65.2240163,7.16652725 64.7591757,7.49450743 64.2796815,7.49450743 L60.023011,7.49450743 C59.5303287,7.49450743 59.2310723,7.05191052 59.3767929,6.4546211 L60.7247494,0.884408336 Z M54.522912,7.49450743 L55.1154007,5.21788254 L57.6227724,5.21788254 L58.1314107,3.29392451 L55.5419795,3.29392451 L55.7456628,2.34412853 C55.8195814,1.99162198 55.9770248,1.96982075 56.1644264,1.96982075 L59.2230943,1.96982075 L59.6270416,0.0402521131 L55.0014293,0.0402521131 C54.628417,0.0402521131 54.2790131,0.336492276 54.1831143,0.690120956 L52.6055867,7.49450743 L54.522912,7.49450743 Z M48.1383947,3.48997523 L50.3877025,2.30902215 C50.5954561,2.1623448 50.4922306,1.96982075 50.0654889,1.96982075 L48.571649,1.96982075 L48.1383947,3.48997523 Z M48.5579724,5.44278782 L47.5786321,5.9253002 L47.1642645,7.49450743 L45.2397753,7.49450743 L47.0517584,0.0402521131 L51.7529175,0.0402521131 C52.611611,0.0402521131 52.8735825,0.406384436 52.7005087,1.22793792 L52.2959101,2.70673419 C52.1651685,3.24535267 51.8354654,3.72946809 51.4569174,3.92070971 L50.3300655,4.42983241 L50.4691107,5.2053789 C50.547751,5.57439668 50.7898589,5.69237977 51.1034431,5.69237977 L51.8647724,5.69237977 L51.3279669,7.49450743 L49.6304437,7.49450743 C49.2349628,7.45795832 49.0032751,7.19041242 48.878395,6.68497668 L48.5579724,5.44278782 Z M38.3692511,6.50142961 C38.2083886,7.27280822 38.5397198,7.46821772 39.059104,7.49450743 L43.7333985,7.49450743 L44.247084,5.69237977 L40.7821894,5.69237977 C40.59723,5.69237977 40.5343829,5.52486301 40.5846931,5.3440411 L40.7035491,4.80718595 L43.474032,4.78666715 L44.0673348,2.8873958 L41.1172654,2.8873958 L41.2636373,2.27151122 C41.3106912,2.01727048 41.4388277,1.95859953 41.7042183,1.96982075 L45.0922637,1.96982075 L45.639815,0.0402521131 L40.9549375,0.0404124162 C40.3494235,0.0404124162 39.8616258,0.129220344 39.6716191,0.741257651 L38.3692511,6.50142961 Z M33.8219534,3.48997523 L36.0710984,2.30902215 C36.2790149,2.1623448 36.1756265,1.96982075 35.7488849,1.96982075 L34.2552077,1.96982075 L33.8219534,3.48997523 Z M30.9231712,7.49450743 L32.7351543,0.0402521131 L37.4364763,0.0402521131 C38.2951697,0.0402521131 38.5571412,0.406384436 38.3839046,1.22793792 L37.9796316,2.70673419 C37.8487273,3.24535267 37.5190242,3.72946809 37.1404762,3.92070971 L33.262028,5.9253002 L32.8474976,7.49450743 L30.9231712,7.49450743 Z M-4.88449037e-05,7.49450743 L2.01170992,7.49450743 L2.46580471,5.59283154 L4.99645917,4.49988487 L4.19621683,7.49450743 L6.17085347,7.49450743 L8.06782671,0.0404124162 L5.99142985,0.0404124162 L5.53733507,1.96421014 L3.06513168,3.0823244 L3.87172385,0.0404124162 L1.83847333,0.0404124162 L-4.88449037e-05,7.49450743 Z M7.91640751,7.49450743 L9.74776576,0.0404124162 L11.5989876,0.0404124162 L9.86320255,7.49450743 L7.91640751,7.49450743 Z M11.6548336,6.40156077 C11.5027631,6.93472894 11.7180064,7.49450743 12.160704,7.49450743 L17.0692912,7.49066016 C17.4774718,7.45330953 17.7256039,7.19393908 17.8563454,6.58879481 L18.6044865,2.97363888 L15.3603708,2.97363888 L14.8994377,4.83668173 L16.1917111,4.83668173 L15.9945405,5.70344069 L14.1693693,5.70360099 C13.9384957,5.68789129 13.9230281,5.45320752 13.9686167,5.26084378 L14.6776819,2.38981492 C14.7221307,2.20771058 14.8917854,2.02095745 15.065022,2.01454532 L18.8783436,2.01454532 L19.4623658,0.0404124162 L13.9868521,0.0404124162 C13.4547683,0.0583663655 13.1135053,0.450147187 12.9830894,0.907652288 L11.6548336,6.40156077 Z M19.0144581,7.49450743 L20.8529802,0.0404124162 L22.8860679,0.0404124162 L22.0796386,3.0823244 L24.5516792,1.96421014 L25.0057739,0.0404124162 L27.0823336,0.0404124162 L25.1851976,7.49450743 L23.2105609,7.49450743 L24.0108033,4.49988487 L21.4803116,5.59283154 L21.026054,7.49450743 L19.0144581,7.49450743 Z" id="Fill-7" fill="#EC1D24" mask="url(#mask-2)"></path>
                        </g>
                        <path d="M73.1405301,49.9543024 C73.2128924,49.702877 73.3464219,49.5390087 73.5899549,49.5361169 L75.1233535,49.5361169 C75.3172389,49.557966 75.4593675,49.7472178 75.4003095,50.011335 L74.7847435,52.7863321 C74.7190334,53.0663541 74.5326113,53.2287765 74.348623,53.2287765 L72.7152802,53.2287765 C72.5260999,53.2287765 72.4217749,53.0094822 72.4918657,52.7133946 L73.1405301,49.9543024 Z M71.8110764,48.3138522 L70.4644244,53.9099545 C70.3187264,54.510323 70.6175858,54.9550165 71.1100061,54.9550165 L75.3621814,54.9550165 C75.8411352,54.9550165 76.3058112,54.6256734 76.4424234,54.0577573 L77.7009751,48.4296846 C77.822336,47.8938995 77.429211,47.5100943 76.9213772,47.4657534 L72.9289597,47.4657534 C72.2957088,47.4713764 71.9684562,47.8039326 71.8110764,48.3138522 Z M41.6066463,54.9550165 L43.6162405,54.9550165 L44.0700459,53.0441837 L46.5981822,51.9462661 L45.7986279,54.9550165 L47.7712296,54.9550165 L49.6664394,47.4657534 L47.5921087,47.4657534 L47.1384654,49.398596 L44.6687382,50.5220578 L45.4744579,47.4657534 L43.4432849,47.4657534 L41.6066463,54.9550165 Z M48.8173997,54.9550165 L50.6566343,47.4657534 L55.8425423,47.4657534 C56.3773091,47.4657534 56.6691919,47.8373489 56.6086737,48.2495901 L54.9738707,54.9550165 L52.904894,54.9550165 L54.181942,49.8334897 C54.2586849,49.5674447 54.1942727,49.3860649 53.9775104,49.3860649 L52.163911,49.3860649 L50.8355929,54.9550165 L48.8173997,54.9550165 Z M58.9855955,49.9543024 C59.0579578,49.702877 59.191325,49.5390087 59.4348581,49.5361169 L60.9684189,49.5361169 C61.1623043,49.557966 61.3044329,49.7472178 61.2452126,50.011335 L60.6298089,52.7863321 C60.5639365,53.0663541 60.3776767,53.2287765 60.1936884,53.2287765 L58.5603456,53.2287765 C58.3711653,53.2287765 58.2666781,53.0094822 58.3369311,52.7133946 L58.9855955,49.9543024 Z M57.6559795,48.3138522 L56.3093276,53.9099545 C56.1637918,54.510323 56.4626512,54.9550165 56.9550715,54.9550165 L61.2072468,54.9550165 C61.6860383,54.9550165 62.1508766,54.6256734 62.2873265,54.0577573 L63.5458783,48.4296846 C63.6675637,47.8938995 63.2741142,47.5100943 62.7662803,47.4657534 L58.7740251,47.4657534 C58.1407742,47.4713764 57.8135216,47.8039326 57.6559795,48.3138522 Z M77.4498164,53.8569383 L78.7763497,48.3373078 C78.9067965,47.8776733 79.2478401,47.4839075 79.7791998,47.4657534 L85.2495272,47.4657534 L84.6657617,49.4492024 L80.8565214,49.4492024 C80.6830791,49.4556286 80.5138552,49.6432739 80.4693995,49.8260995 L79.7610281,52.7108242 C79.7152744,52.9040924 79.7308501,53.1397735 79.9615657,53.1555177 L81.7849,53.1555177 L81.9817059,52.2846059 L80.690867,52.2846059 L81.1511623,50.4128123 L84.3922129,50.4128123 L83.6447399,54.0450655 C83.5142932,54.6529848 83.2663794,54.9137282 82.8584899,54.9513215 L77.9550543,54.9550165 C77.5127683,54.9550165 77.2974663,54.3924021 77.4498164,53.8569383 Z M27.9413739,53.9571871 C27.7805869,54.7321878 28.1117334,54.9285084 28.6304378,54.9550165 L33.2997507,54.9550165 L33.8132632,53.1442719 L30.3517186,53.1442719 C30.166919,53.1442719 30.1042916,52.9760659 30.1545882,52.7945255 L30.273191,52.2550454 L33.0406419,52.2343209 L33.6334932,50.3262191 L30.6864346,50.3262191 L30.8326194,49.7073753 C30.8796711,49.4520942 31.0075219,49.3929731 31.2727961,49.404219 L34.6574355,49.404219 L35.2043709,47.4657534 L30.5241874,47.4659141 C29.9193298,47.4659141 29.4319391,47.5549171 29.2422721,48.1700658 L27.9413739,53.9571871 Z M66.9572884,47.775336 L65.5199402,53.1503768 L69.3288561,53.1436292 C69.5274467,53.1408981 69.5759586,53.2827566 69.5548665,53.3690285 L69.2650929,54.5720146 C69.2078197,54.8105875 68.9360556,54.9810427 68.7426569,54.9810427 C66.836252,54.9795968 65.6534697,54.9779902 63.7267839,54.9765443 C63.3914189,54.9787935 63.0829869,54.5805293 63.1756301,54.262914 L63.3639991,53.5717753 L64.9115132,47.4657534 L66.6903917,47.4657534 C66.8747046,47.4699305 67.01083,47.5640744 66.9572884,47.775336 Z M34.609897,53.9605609 L35.957847,48.2642097 C36.0991643,47.8349391 36.3598956,47.5243926 36.8302503,47.4659141 L41.2982144,47.4657534 C41.8709471,47.4657534 42.2134509,47.88667 42.1175628,48.3988388 L41.6012922,50.6025461 L39.6041911,50.6025461 L39.7878549,49.8357388 C39.8702765,49.5083235 39.6322599,49.3860649 39.4276661,49.3860649 L37.7649565,49.3860649 L36.8537761,53.0944688 L38.5851163,53.1177638 C38.804799,53.119531 39.0173429,53.0575181 39.0859734,52.7704272 L39.2456247,52.0990492 L41.2045977,52.0990492 L40.6807014,54.2984188 C40.5449005,54.8035187 40.2195948,54.9688329 39.7922356,54.9550165 L35.1222738,54.9550165 C34.6919941,54.9029643 34.4768543,54.4065397 34.609897,53.9605609 Z M87.057448,54.9964656 L87.9566222,51.7136374 L85.8206375,47.4657534 L87.7109799,47.4665567 C87.952566,47.4607731 87.9442914,47.5468843 88.0296334,47.7187854 L89.059741,49.7966996 L91.050839,47.4718583 L93.3093203,47.4660747 C93.4121851,47.4659141 93.4585878,47.5187696 93.3969338,47.5799793 C92.5448114,48.4242223 91.077772,50.2123146 90.0580482,51.4357039 L89.164715,54.9964656 L87.057448,54.9964656 Z M22.5928941,55 L23.9849753,49.301239 L21.8493151,49.3050947 L22.2416289,47.6760511 C22.2990644,47.4373175 22.3813237,47.466878 22.5747224,47.4670387 C24.480965,47.4684846 26.1886171,47.4702518 28.1154651,47.4716977 C28.4464495,47.4696091 28.4225991,47.6815133 28.3834975,47.8134113 L27.9807999,49.2941702 L25.857795,49.2978652 L24.5374271,55 L22.5928941,55 Z" id="Fill-10" fill="#231F20"></path>
                    </g>
                </g>
            </g>
        </g>
    </g>
</svg>